<svg width="119" height="122" viewBox="0 0 119 122" fill="none" xmlns="http://www.w3.org/2000/svg">
<path d="M101.996 45.4034L101.996 45.4034L102 45.4118C102.961 47.79 103.559 49.5646 103.912 51.4181C104.265 53.2684 104.376 55.2185 104.341 57.9491C104.293 58.6486 104.259 59.3805 104.224 60.1389C104.082 63.2255 103.919 66.7515 102.69 70.3211L102.689 70.3247C97.7578 85.004 87.3159 93.2857 76.5136 98.704L76.5073 98.7072C68.1597 103.044 54.7553 105.833 44.4822 103.223L44.4822 103.223L44.4696 103.22C41.6348 102.577 38.0915 101.2 34.8041 99.5963C31.5132 97.9913 28.5253 96.1826 26.7866 94.6966L26.7835 94.6941C24.2297 92.5464 21.4156 89.4519 19.0516 86.1173C16.6837 82.777 14.796 79.2359 14.0559 76.1977L14.053 76.1856L14.0495 76.1738C11.6075 67.9442 12.0704 56.9535 18.5528 46.0057L18.5529 46.0057L18.5581 45.9966C23.3282 37.5405 30.1742 31.6909 37.5316 27.7127L37.5317 27.7128L37.5392 27.7085C37.7647 27.5815 37.9888 27.4551 38.2117 27.3293C41.724 25.3473 44.93 23.5381 48.543 22.4033L48.5533 22.4L48.5636 22.3963C52.2416 21.063 56.2008 19.629 59.5061 18.9862C60.0931 18.9272 60.7962 18.9209 61.5715 18.9139C61.715 18.9126 61.861 18.9113 62.0092 18.9096C62.946 18.899 63.9553 18.8736 64.8855 18.7338C69.7913 18.2706 74.5335 18.0413 80.6693 20.0872C93.953 24.9294 98.1156 35.2783 101.996 45.4034Z" stroke="#414FCB"/>
</svg>
