<svg width="126" height="19" viewBox="0 0 126 19" fill="none" xmlns="http://www.w3.org/2000/svg">
<g clip-path="url(#clip0)">
<path d="M52.249 12.211C52.249 8.11121 55.3014 5.42212 59.1169 5.42212C61.4959 5.42212 63.1119 6.43604 64.2789 7.84671L62.9772 8.6843C62.1243 7.6263 60.7328 6.87688 59.1169 6.87688C56.1991 6.87688 53.9996 9.03697 53.9996 12.211C53.9996 15.2968 56.1991 17.5451 59.1169 17.5451C61.855 17.5451 63.2914 15.6495 63.6056 13.4894H58.1293V12.0346H65.4011C65.4011 16.1344 63.1119 19.0439 59.0271 19.0439C55.3014 18.9998 52.249 16.2667 52.249 12.211Z" fill="#414FCB"/>
<path d="M79.5415 18.7356L78.3745 15.8261H71.7311L70.564 18.7356H68.6787L74.0652 5.64282H76.1301L81.4717 18.7356H79.5415ZM75.0528 7.318L72.2248 14.3714H77.8807L75.0528 7.318Z" fill="#414FCB"/>
<path d="M85.1074 16.8838L86.095 15.6495C86.9478 16.6193 88.3842 17.5451 90.2695 17.5451C92.6486 17.5451 93.4117 16.2667 93.4117 15.2527C93.4117 11.8583 85.5114 13.7539 85.5114 9.08105C85.5114 6.92096 87.4865 5.42212 90.09 5.42212C92.1099 5.42212 93.681 6.12746 94.8032 7.27363L93.8156 8.46388C92.8281 7.36179 91.4366 6.87688 89.9553 6.87688C88.3842 6.87688 87.2171 7.71446 87.2171 8.9488C87.2171 11.9024 95.1174 10.2272 95.1174 15.0764C95.1174 16.972 93.8156 18.9117 90.1797 18.9117C87.9353 18.9558 86.1847 18.1182 85.1074 16.8838Z" fill="#414FCB"/>
<path d="M100.594 18.7356V5.64282H109.347V7.09758H102.255V11.3296H109.212V12.7844H102.255V17.2809H109.347V18.7356H100.594Z" fill="#414FCB"/>
<path d="M124.429 18.7356L116.619 8.28783V18.7356H115.003V5.64282H116.664L124.34 15.8702V5.64282H126V18.7356H124.429Z" fill="#414FCB"/>
<path d="M75.0521 4.09966C73.885 4.09966 72.9424 3.17391 72.9424 2.02774C72.9424 0.881565 73.885 -0.0441895 75.0521 -0.0441895C76.2192 -0.0441895 77.1618 0.881565 77.1618 2.02774C77.1618 3.17391 76.2192 4.09966 75.0521 4.09966ZM75.0521 0.881565C74.3788 0.881565 73.8401 1.41057 73.8401 2.07182C73.8401 2.73307 74.3788 3.26208 75.0521 3.26208C75.7254 3.26208 76.2641 2.73307 76.2641 2.07182C76.2641 1.41057 75.7254 0.881565 75.0521 0.881565Z" fill="#414FCB"/>
<path d="M0 12.211C0 8.11121 3.05237 5.42212 6.86783 5.42212C9.24688 5.42212 10.8628 6.43604 12.0299 7.84671L10.7282 8.6843C9.87531 7.6263 8.48379 6.87688 6.86783 6.87688C3.95012 6.87688 1.75062 9.03697 1.75062 12.211C1.75062 15.2968 3.95012 17.5451 6.86783 17.5451C9.60598 17.5451 11.0424 15.6495 11.3566 13.4894H5.83541V12.0346H13.1072C13.1072 16.1344 10.818 19.0439 6.73317 19.0439C3.05237 18.9998 0 16.2667 0 12.211Z" fill="#414FCB"/>
<path d="M25.4961 18.7356L22.1295 13.5338H19.4362V18.7356H17.7754V5.64282H23.117C25.541 5.64282 27.3365 7.18575 27.3365 9.56626C27.3365 11.9027 25.6756 13.2252 23.8801 13.3574L27.4712 18.6915H25.4961V18.7356ZM25.6308 9.61034C25.6308 8.1115 24.5535 7.09758 22.9375 7.09758H19.4362V12.1231H22.9375C24.5086 12.1231 25.6308 11.0651 25.6308 9.61034Z" fill="#414FCB"/>
<path d="M42.4634 18.7356L41.2963 15.8261H34.653L33.4859 18.7356H31.6006L36.9871 5.64282H39.052L44.3936 18.7356H42.4634ZM37.9746 7.318L35.1467 14.3714H40.8026L37.9746 7.318Z" fill="#414FCB"/>
<path d="M37.8851 4.09966C36.718 4.09966 35.7754 3.17391 35.7754 2.02774C35.7754 0.881565 36.718 -0.0441895 37.8851 -0.0441895C39.0522 -0.0441895 39.9948 0.881565 39.9948 2.02774C39.9948 3.17391 39.0522 4.09966 37.8851 4.09966ZM37.8851 0.881565C37.2118 0.881565 36.6731 1.41057 36.6731 2.07182C36.6731 2.73307 37.2118 3.26208 37.8851 3.26208C38.5584 3.26208 39.0971 2.73307 39.0971 2.07182C39.0971 1.41057 38.5584 0.881565 37.8851 0.881565Z" fill="#414FCB"/>
</g>
<defs>
<clipPath id="clip0">
<rect width="126" height="19" fill="white"/>
</clipPath>
</defs>
</svg>
